<?xml version="1.0" encoding="utf-8"?>
<!-- Generator: Adobe Illustrator 23.0.5, SVG Export Plug-In . SVG Version: 6.00 Build 0)  -->
<svg version="1.1" id="Layer_1" xmlns="http://www.w3.org/2000/svg" xmlns:xlink="http://www.w3.org/1999/xlink" x="0px" y="0px"
	 viewBox="0 0 50 50" style="enable-background:new 0 0 50 50;" xml:space="preserve">
<style type="text/css">
	.st0{clip-path:url(#SVGID_2_);}
	.st1{clip-path:url(#SVGID_4_);}
	.st2{clip-path:url(#SVGID_6_);fill:#35B4A0;}
	.st3{clip-path:url(#SVGID_6_);fill:none;stroke:#35B4A0;stroke-width:0.122;stroke-miterlimit:10;}
	.st4{clip-path:url(#SVGID_6_);fill:none;stroke:#020203;stroke-width:0.122;stroke-miterlimit:10;}
</style>
<g>
	<g>
		<defs>
			<rect id="SVGID_1_" x="0.3" width="50" height="50"/>
		</defs>
		<clipPath id="SVGID_2_">
			<use xlink:href="#SVGID_1_"  style="overflow:visible;"/>
		</clipPath>
		<g class="st0">
			<defs>
				<rect id="SVGID_3_" x="0.3" y="1.87" width="82.85" height="43.01"/>
			</defs>
			<clipPath id="SVGID_4_">
				<use xlink:href="#SVGID_3_"  style="overflow:visible;"/>
			</clipPath>
			<g class="st1">
				<defs>
					<rect id="SVGID_5_" x="0.3" y="1.87" width="156.37" height="43.01"/>
				</defs>
				<clipPath id="SVGID_6_">
					<use xlink:href="#SVGID_5_"  style="overflow:visible;"/>
				</clipPath>
				<path class="st2" d="M7.34,19.23c-3.82,0-6.92,2.9-6.92,6.48c0,3.41,2.82,6.21,6.4,6.45l4.92-1.46c1.53-1.19,2.52-2.98,2.52-5
					c0-0.05,0-0.1-0.01-0.15l-1.87-4.28C11.12,20.02,9.33,19.23,7.34,19.23"/>
				<path class="st3" d="M7.34,19.23c-3.82,0-6.92,2.9-6.92,6.48c0,3.41,2.82,6.21,6.4,6.45l4.92-1.46c1.53-1.19,2.52-2.98,2.52-5
					c0-0.05,0-0.1-0.01-0.15l-1.87-4.28C11.12,20.02,9.33,19.23,7.34,19.23z"/>
				<path class="st2" d="M46.29,14.94l-7.49,8.42l-5.74-0.58l-2.84-0.64l-2.19-6.13l-0.71-2.19l6.33-6.84l10.2,1.94l1.68-0.97
					l0.77-0.97V5.55l-0.77-1.16l-11.1-2.32h-3.23l-8.52,9.55l-0.64,0.64l1.16,4.78L12.6,21.17l-0.73,0.24l0,0.01
					c1.13,1.13,1.83,2.63,1.87,4.28l0.13,0.3l10.67-3.72L25,22.06l1.76,4.45l13.86,2.24l9.1-10.36v-1.9l-1.71-1.55H46.29"/>
				<path class="st3" d="M46.29,14.94l-7.49,8.42l-5.74-0.58l-2.84-0.64l-2.19-6.13l-0.71-2.19l6.33-6.84l10.2,1.94l1.68-0.97
					l0.77-0.97V5.55l-0.77-1.16l-11.1-2.32h-3.23l-8.52,9.55l-0.64,0.64l1.16,4.78L12.6,21.17l-0.73,0.24l0,0.01
					c1.13,1.13,1.83,2.63,1.87,4.28l0.13,0.3l10.67-3.72L25,22.06l1.76,4.45l13.86,2.24l9.1-10.36v-1.9l-1.71-1.55H46.29z"/>
				<path class="st2" d="M4.88,29.29L4.88,29.29l0,15.47H9.8V27.83c-1.2,0.93-2.73,1.48-4.4,1.48C5.23,29.31,5.05,29.3,4.88,29.29"
					/>
				<path class="st3" d="M4.88,29.29L4.88,29.29l0,15.47H9.8V27.83c-1.2,0.93-2.73,1.48-4.4,1.48C5.23,29.31,5.05,29.3,4.88,29.29z"
					/>
				<path class="st2" d="M7.4,32.97c3.85,0,6.97-3.12,6.97-6.97c0-3.85-3.12-6.97-6.97-6.97c-3.85,0-6.97,3.12-6.97,6.97
					C0.42,29.85,3.55,32.97,7.4,32.97"/>
				<circle class="st3" cx="7.4" cy="26" r="6.97"/>
				<path class="st2" d="M143.5,2c-7.2,0-13.04,5.84-13.04,13.04s5.84,13.04,13.04,13.04c7.2,0,13.04-5.84,13.04-13.04
					S150.7,2,143.5,2 M151.1,16.76L151.1,16.76c-0.2,1.07-0.62,2.07-1.2,2.94l1.57,1.36l-2.23,2.19l-1.4-1.44
					c-1.07,0.75-2.32,1.24-3.68,1.39l0.78,0.05v1.56h-3.58v-1.79h0.01c-1.16-0.28-2.21-0.82-3.1-1.54l-1.02,1.35l-1.94-2.02
					l1.17-1.38c-0.56-0.92-0.94-1.95-1.09-3.06v0.01h-2.31v-3.33h2.55v0.01c0.25-0.87,0.65-1.68,1.17-2.4l-0.01,0
					c0,0-1.57-1.67-1.74-1.71l2.45-2.02l1.46,1.66c0.73-0.47,1.54-0.83,2.41-1.04h0v-2.9h3.58v2.84h0c0.82,0.17,1.6,0.48,2.31,0.88
					l-0.01-0.01l2.09-1.44l1.93,2.19l-1.67,1.29h0c0.61,0.78,1.07,1.68,1.36,2.66v0h2.18v3.72H151.1z"/>
				<path class="st4" d="M143.5,2c-7.2,0-13.04,5.84-13.04,13.04s5.84,13.04,13.04,13.04c7.2,0,13.04-5.84,13.04-13.04
					S150.7,2,143.5,2z M151.1,16.76L151.1,16.76c-0.2,1.07-0.62,2.07-1.2,2.94l1.57,1.36l-2.23,2.19l-1.4-1.44
					c-1.07,0.75-2.32,1.24-3.68,1.39l0.78,0.05v1.56h-3.58v-1.79h0.01c-1.16-0.28-2.21-0.82-3.1-1.54l-1.02,1.35l-1.94-2.02
					l1.17-1.38c-0.56-0.92-0.94-1.95-1.09-3.06v0.01h-2.31v-3.33h2.55v0.01c0.25-0.87,0.65-1.68,1.17-2.4l-0.01,0
					c0,0-1.57-1.67-1.74-1.71l2.45-2.02l1.46,1.66c0.73-0.47,1.54-0.83,2.41-1.04h0v-2.9h3.58v2.84h0c0.82,0.17,1.6,0.48,2.31,0.88
					l-0.01-0.01l2.09-1.44l1.93,2.19l-1.67,1.29h0c0.61,0.78,1.07,1.68,1.36,2.66v0h2.18v3.72H151.1z"/>
				<path class="st2" d="M141.55,19.11c2.15,0.89,4.62-0.13,5.51-2.28c0.89-2.15-0.13-4.62-2.28-5.51
					c-2.15-0.89-4.62,0.13-5.51,2.28C138.38,15.75,139.4,18.22,141.55,19.11"/>
				<path class="st4" d="M141.55,19.11c2.15,0.89,4.62-0.13,5.51-2.28c0.89-2.15-0.13-4.62-2.28-5.51
					c-2.15-0.89-4.62,0.13-5.51,2.28C138.38,15.75,139.4,18.22,141.55,19.11z"/>
				<path class="st2" d="M143.26,7.29c-0.66,0-1.3,0.08-1.91,0.23l3.57-0.06C144.39,7.36,143.83,7.29,143.26,7.29"/>
				<path class="st4" d="M143.26,7.29c-0.66,0-1.3,0.08-1.91,0.23l3.57-0.06C144.39,7.36,143.83,7.29,143.26,7.29z"/>
				<path class="st2" d="M147.23,8.35l2.34,2.03C148.93,9.57,148.14,8.87,147.23,8.35"/>
				<path class="st4" d="M147.23,8.35l2.34,2.03C148.93,9.57,148.14,8.87,147.23,8.35z"/>
				<path class="st2" d="M150.92,13.04l0.18,3.71c0.09-0.48,0.14-0.98,0.14-1.48C151.24,14.5,151.13,13.75,150.92,13.04"/>
				<path class="st4" d="M150.92,13.04l0.18,3.71c0.09-0.48,0.14-0.98,0.14-1.48C151.24,14.5,151.13,13.75,150.92,13.04z"/>
				<path class="st2" d="M149.9,19.7l-2.07,2.11C148.65,21.24,149.35,20.53,149.9,19.7"/>
				<path class="st4" d="M149.9,19.7l-2.07,2.11C148.65,21.24,149.35,20.53,149.9,19.7z"/>
				<path class="st2" d="M143.26,23.25c0.3,0,0.6-0.02,0.89-0.05l-2.8-0.18C141.96,23.17,142.6,23.25,143.26,23.25"/>
				<path class="st4" d="M143.26,23.25c0.3,0,0.6-0.02,0.89-0.05l-2.8-0.18C141.96,23.17,142.6,23.25,143.26,23.25z"/>
				<path class="st2" d="M138.25,21.48l-1.8-2.05C136.93,20.21,137.54,20.91,138.25,21.48"/>
				<path class="st4" d="M138.25,21.48l-1.8-2.05C136.93,20.21,137.54,20.91,138.25,21.48z"/>
				<path class="st2" d="M135.28,15.27c0,0.37,0.03,0.74,0.08,1.09l0.24-3.32C135.4,13.75,135.28,14.5,135.28,15.27"/>
				<path class="st4" d="M135.28,15.27c0,0.37,0.03,0.74,0.08,1.09l0.24-3.32C135.4,13.75,135.28,14.5,135.28,15.27z"/>
				<path class="st2" d="M136.77,10.64l2.17-2.07C138.09,9.11,137.35,9.82,136.77,10.64"/>
				<path class="st4" d="M136.77,10.64l2.17-2.07C138.09,9.11,137.35,9.82,136.77,10.64z"/>
			</g>
		</g>
	</g>
</g>
</svg>
